<?xml version="1.0" encoding="UTF-8"?>
<svg id="Ver_3" xmlns="http://www.w3.org/2000/svg" viewBox="0 0 1635.66 686.07">
  <defs>
    <style>
      .cls-1 {
        fill: none;
        stroke: #fff;
        stroke-miterlimit: 10;
        stroke-width: 8px;
      }

      .cls-2 {
        fill: #fff;
      }
    </style>
  </defs>
  <g>
    <path class="cls-2" d="M1584.46,354.42V.02h-120.8l-72.14,131.86c27.81,2.74,53.27,13.46,74.06,29.86l.48-.92v1.31c32.79,26.1,53.81,66.35,53.81,111.52,0,78.68-63.79,142.47-142.47,142.47-41.2,0-78.32-17.5-104.33-45.46l-.67,73.19,193.66-1v121.98h118.4v-123.98l51.2,1v-87.42h-51.2Z"/>
    <path class="cls-2" d="M1260.6,354.41c-15.97-23.02-25.33-50.96-25.33-81.1s9.36-58.08,25.33-81.1v-60.37h116.8L1451.4.25h-237.46l-71.74,71.99v433.53l61.02,59.28h248.18v-107.21h-190.8s0-103.43,0-103.43Z"/>
  </g>
  <g>
    <path class="cls-1" d="M1252.14,276.52s16.73-50.63,50.99-39.42c45.85,15,72.41,146.87,139.27,143.29"/>
    <path class="cls-1" d="M1272.1,205.7s44.75-11.46,121.03,36.54c76.28,48,95.74,87.94,95.74,87.94"/>
    <path class="cls-1" d="M1316.45,164.15s-17.17,23.95,45.11,25.66c62.28,1.71,92.34-5.34,132.02,37.47"/>
    <path class="cls-1" d="M1387.73,148.83c-33.01,14.36-62.36,37.12-77.88,72.99-49.15,113.56,12.23,163.59,13.61,164.7.02,0,.03.02.03.02"/>
    <circle class="cls-1" cx="1377.27" cy="273.52" r="125.13"/>
  </g>
</svg>