<?xml version="1.0" encoding="UTF-8"?>
<svg id="Layer_1" xmlns="http://www.w3.org/2000/svg" viewBox="0 0 648.24 375.5">
  <defs>
    <style>
      .cls-1 {
        fill: #fff;
      }

      .cls-2 {
        fill: none;
        stroke: #000;
        stroke-miterlimit: 10;
        stroke-width: 3px;
      }
    </style>
  </defs>
  <g id="ETCode">
    <path class="cls-1" d="M115.21,55h-26l.28-55h89.25l.47,54h-26l-.47,122.5h-37.25l-.28-121.5Z"/>
    <path class="cls-1" d="M289.75,24.25v43.25h-37v-34h-25.25v109.5h25.25v-42.25h37v51.5l-27,24.25h-46l-26.25-24.25V24.25L216.75,0h46l27,24.25Z"/>
    <path class="cls-1" d="M454.25,0h72.25l26,24.25v128l-26,24.25h-72.25V0ZM515.5,143V33.5h-24.25v109.5h24.25Z"/>
    <path class="cls-1" d="M569.99,151.66V24.51L591.21,0h-.17s57.2,0,57.2,0v33.5h-41.25v32.5h34.5v33.5h-34.5v43.5h41.25v33.5h-54.14"/>
  </g>
  <rect class="cls-2" x="117.21" y="25" width="34" height="23"/>
  <rect class="cls-2" x="95.21" y="6" width="78" height="43"/>
  <g id="BasketFull">
    <g>
      <g>
        <path class="cls-1" d="M321.08,41.87c-6.18,4.45-12.2,9.97-17.42,15.95,4.78-13,13.36-24.76,25.45-33.46,1.57-1.13,3.17-2.19,4.8-3.18,7.33-1.41,12.22-.83,15.6.24,3.45,1.09,5.96,2.85,7.47,5.24-2.75.52-5.46,1.15-8.14,1.9-10.11,2.84-19.45,7.32-27.76,13.3Z"/>
        <path class="cls-1" d="M340.38,17.69c6.88-3.26,14.11-5.35,21.41-6.3,4.16,3.63,7.66,7.82,11.41,13.62-4.56.09-9.07.48-13.51,1.18-1.75-3.35-4.99-5.85-9.4-7.25-2.93-.93-6.37-1.36-9.91-1.26Z"/>
        <path class="cls-1" d="M365.25,11.02c8.67-.7,17.4.17,25.72,2.55-1.18,1.04-1.97,2.34-2.35,3.26-.91,2.2-1.12,4.67-.61,7.33.11.56.24,1.12.41,1.69-3.13-.41-6.28-.67-9.44-.79-.91-.03-1.82-.06-2.72-.07-.06-.1-.11-.19-.17-.28v-.02c-3.62-5.74-6.99-10.01-10.84-13.67Z"/>
        <path class="cls-1" d="M391.02,17.83c.45-1.09,1.62-2.68,3.22-3.23,13.61,4.6,25.97,13.31,35.05,25.8-11.38-7.12-24.42-11.96-38-14.12-1.15-3.08-1.27-6.04-.28-8.44Z"/>
        <path class="cls-1" d="M323.1,132.24c.84,2.23,1.86,4.44,3.04,6.61-4.95-3.98-9.46-8.68-13.36-14.09-13.05-18.12-16.46-40.27-11.21-60.31,5.91-7.69,13.34-14.93,21.03-20.47s17.13-10.15,26.95-12.91c2.83-.79,5.7-1.45,8.6-1.98,1.13,2.99,1.57,6.94-.78,13.85-1.57,4.63-4.3,10.2-8.1,16.53-4.39,7.32-10.37,15.92-17.77,25.56-7.89,10.28-11.73,21.12-11.41,32.21.14,5.03,1.16,10.07,3.01,15Z"/>
        <path class="cls-1" d="M392.66,29.14c14.67,2.6,28.63,8.4,40.36,16.89,10.46,17.59,12.59,38.16,7.21,56.74.17-1.69.28-3.38.3-5.07.14-8.62-1.65-15.32-3.18-19.42-4.42-11.87-14.43-20.07-24.11-28-6.69-5.48-13.59-11.13-18.48-17.93-.64-.89-1.25-1.81-1.82-2.74-.1-.16-.19-.31-.28-.47Z"/>
        <path class="cls-1" d="M380.27,154.08c-16.9,2.15-34.21-1.77-48.6-11.2-2.59-3.72-4.66-7.6-6.15-11.55-1.75-4.65-2.71-9.42-2.85-14.15-.3-10.48,3.36-20.76,10.88-30.56,7.46-9.72,13.49-18.4,17.93-25.81,3.9-6.49,6.7-12.22,8.33-17.03,2.47-7.29,2.06-11.81.92-15.11,4.59-.69,9.27-1.05,14.01-1.07,5.83,10.52,12.53,31.25,15.06,55.78,1.38,13.34,1.33,26.04-.12,37.74-1.56,12.51-4.73,23.59-9.42,32.98Z"/>
        <path class="cls-1" d="M413.18,141.09c-9.17,6.6-19.36,10.74-29.8,12.53,4.39-9.29,7.38-20.1,8.89-32.19,1.48-11.89,1.53-24.79.13-38.33-1.21-11.72-3.5-23.62-6.61-34.4-2.39-8.27-5.21-15.61-8.07-21.08.39,0,.77.02,1.16.04,3.55.13,7.09.46,10.59.96.36.79.78,1.57,1.24,2.33.61,1,1.26,1.97,1.94,2.92,5.08,7.06,12.11,12.82,18.94,18.41,4.74,3.89,9.65,7.9,13.77,12.27,4.56,4.83,7.69,9.62,9.56,14.63,1.45,3.89,3.15,10.26,3.01,18.47-.11,6.89-1.5,13.74-4.12,20.4-4.97,8.82-11.88,16.73-20.63,23.03Z"/>
      </g>
      <ellipse class="cls-1" cx="371.14" cy="167.14" rx="67.39" ry="5.87"/>
    </g>
  </g>
  <path class="cls-1" d="M.15,151.95V24.8L21.37.29h-.17s57.2,0,57.2,0v33.5h-41.25v32.5h34.5v33.5h-34.5v43.5h41.25v33.5H24.27"/>
</svg>