<svg id="Layer_1" data-name="Layer 1" xmlns="http://www.w3.org/2000/svg" viewBox="0 0 648.09 176.79"><defs><style>.cls-1{fill:#dd772d;}.cls-2{fill:none;stroke:#fff;stroke-miterlimit:10;stroke-width:3px;}</style></defs><g id="ETCode"><path class="cls-1" d="M756,517H730l.28-55h89.25l.47,54H794l-.47,122.5H756.28Z" transform="translate(-640.94 -462)"/><path class="cls-1" d="M930.53,486.25V529.5h-37v-34H868.28V605h25.25V562.75h37v51.5l-27,24.25h-46l-26.25-24.25v-128L857.53,462h46Z" transform="translate(-640.94 -462)"/><path class="cls-1" d="M1095,462h72.25l26,24.25v128l-26,24.25H1095Zm61.25,143V495.5H1132V605Z" transform="translate(-640.94 -462)"/><path class="cls-1" d="M1210.78,613.66V486.51L1232,462h57v33.5h-41.25V528h34.5v33.5h-34.5V605H1289v33.5h-54.14" transform="translate(-640.94 -462)"/></g><rect class="cls-2" x="117.06" y="25" width="34" height="23"/><rect class="cls-2" x="95.06" y="6" width="78" height="43"/><g id="BasketFull"><path class="cls-1" d="M961.87,503.87a105,105,0,0,0-17.43,16,71.65,71.65,0,0,1,25.45-33.47q2.36-1.69,4.8-3.17c7.34-1.41,12.22-.83,15.6.24a13.06,13.06,0,0,1,7.47,5.24c-2.74.52-5.46,1.15-8.13,1.9A88,88,0,0,0,961.87,503.87Z" transform="translate(-640.94 -462)"/><path class="cls-1" d="M981.17,479.69a71.26,71.26,0,0,1,21.41-6.3A61.45,61.45,0,0,1,1014,487a97.72,97.72,0,0,0-13.51,1.18c-1.75-3.35-5-5.85-9.4-7.25A30.22,30.22,0,0,0,981.17,479.69Z" transform="translate(-640.94 -462)"/><path class="cls-1" d="M1006,473a72.22,72.22,0,0,1,25.72,2.56,9.22,9.22,0,0,0-2.35,3.26,12.67,12.67,0,0,0-.61,7.33,15.93,15.93,0,0,0,.41,1.69q-4.7-.62-9.44-.8c-.91,0-1.81-.05-2.72-.06l-.17-.29v0A68.81,68.81,0,0,0,1006,473Z" transform="translate(-640.94 -462)"/><path class="cls-1" d="M1031.81,479.83a6,6,0,0,1,3.22-3.23,71.63,71.63,0,0,1,35.06,25.79,102.16,102.16,0,0,0-38-14.12A11.53,11.53,0,0,1,1031.81,479.83Z" transform="translate(-640.94 -462)"/><path class="cls-1" d="M963.88,594.24a52.89,52.89,0,0,0,3,6.61,72,72,0,0,1-24.56-74.4,102.88,102.88,0,0,1,21-20.47,85.67,85.67,0,0,1,27-12.92q4.24-1.19,8.6-2c1.13,3,1.57,6.93-.78,13.85a89,89,0,0,1-8.1,16.53A281.36,281.36,0,0,1,972.29,547c-7.89,10.28-11.73,21.12-11.42,32.21A46.25,46.25,0,0,0,963.88,594.24Z" transform="translate(-640.94 -462)"/><path class="cls-1" d="M1033.44,491.13A98.5,98.5,0,0,1,1073.8,508a71.83,71.83,0,0,1,7.21,56.75c.18-1.69.28-3.38.31-5.08a53.44,53.44,0,0,0-3.18-19.42c-4.42-11.87-14.43-20.07-24.11-28-6.7-5.48-13.59-11.13-18.49-17.92-.64-.9-1.25-1.81-1.82-2.75Z" transform="translate(-640.94 -462)"/><path class="cls-1" d="M1021.06,616.08a72.2,72.2,0,0,1-48.6-11.2,53.15,53.15,0,0,1-6.15-11.56,43.53,43.53,0,0,1-2.84-14.15c-.3-10.48,3.36-20.77,10.88-30.56a283.35,283.35,0,0,0,17.93-25.81,91.43,91.43,0,0,0,8.33-17c2.48-7.29,2.07-11.81.93-15.11a95.58,95.58,0,0,1,14-1.07c5.83,10.52,12.53,31.24,15.06,55.77a167.78,167.78,0,0,1-.13,37.74C1028.92,595.62,1025.75,606.7,1021.06,616.08Z" transform="translate(-640.94 -462)"/><path class="cls-1" d="M1054,603.09a71.8,71.8,0,0,1-29.8,12.53,105.74,105.74,0,0,0,8.89-32.19,170.09,170.09,0,0,0,.13-38.33,199.58,199.58,0,0,0-6.61-34.4,117.43,117.43,0,0,0-8.07-21.08l1.16,0a101.11,101.11,0,0,1,10.59,1,22.7,22.7,0,0,0,1.24,2.33c.61,1,1.26,2,2,2.93,5.08,7.05,12.11,12.81,18.93,18.4a148.67,148.67,0,0,1,13.77,12.27,43.62,43.62,0,0,1,9.56,14.63,50.67,50.67,0,0,1,3,18.47,58.08,58.08,0,0,1-4.12,20.4A71.71,71.71,0,0,1,1054,603.09Z" transform="translate(-640.94 -462)"/><ellipse class="cls-1" cx="370.99" cy="167.14" rx="67.39" ry="5.87"/></g><path class="cls-1" d="M640.94,614V486.8l21.22-24.51h57v33.5H677.94v32.5h34.5v33.5h-34.5v43.5h41.25v33.5H665.05" transform="translate(-640.94 -462)"/></svg>